<svg display="none" xmlns="http://www.w3.org/2000/svg">

   <symbol viewBox="0 0 128 29" id="logo-icon" fill="currentColor">
      <path d="M46.9307 22H44.1006L42.9756 19.0732H37.8252L36.7617 22H34.002L39.0205 9.11523H41.7715L46.9307 22ZM42.1406 16.9023L40.3652 12.1211L38.625 16.9023H42.1406ZM48.3457 22V9.11523H50.877L56.1504 17.7197V9.11523H58.5674V22H55.957L50.7627 13.5977V22H48.3457ZM64.2275 22V11.2949H60.4043V9.11523H70.6436V11.2949H66.8291V22H64.2275ZM71.4697 15.6367C71.4697 14.3242 71.666 13.2227 72.0586 12.332C72.3516 11.6758 72.75 11.0869 73.2539 10.5654C73.7637 10.0439 74.3203 9.65723 74.9238 9.40527C75.7266 9.06543 76.6523 8.89551 77.7012 8.89551C79.5996 8.89551 81.1172 9.48438 82.2539 10.6621C83.3965 11.8398 83.9678 13.4775 83.9678 15.5752C83.9678 17.6553 83.4023 19.2842 82.2715 20.4619C81.1406 21.6338 79.6289 22.2197 77.7363 22.2197C75.8203 22.2197 74.2969 21.6367 73.166 20.4707C72.0352 19.2988 71.4697 17.6875 71.4697 15.6367ZM74.1504 15.5488C74.1504 17.0078 74.4873 18.1152 75.1611 18.8711C75.835 19.6211 76.6904 19.9961 77.7275 19.9961C78.7646 19.9961 79.6143 19.624 80.2764 18.8799C80.9443 18.1299 81.2783 17.0078 81.2783 15.5137C81.2783 14.0371 80.9531 12.9355 80.3027 12.209C79.6582 11.4824 78.7998 11.1191 77.7275 11.1191C76.6553 11.1191 75.791 11.4883 75.1348 12.2266C74.4785 12.959 74.1504 14.0664 74.1504 15.5488ZM86.0332 22V9.11523H88.5645L93.8379 17.7197V9.11523H96.2549V22H93.6445L88.4502 13.5977V22H86.0332ZM98.4873 15.6367C98.4873 14.3242 98.6836 13.2227 99.0762 12.332C99.3691 11.6758 99.7676 11.0869 100.271 10.5654C100.781 10.0439 101.338 9.65723 101.941 9.40527C102.744 9.06543 103.67 8.89551 104.719 8.89551C106.617 8.89551 108.135 9.48438 109.271 10.6621C110.414 11.8398 110.985 13.4775 110.985 15.5752C110.985 17.6553 110.42 19.2842 109.289 20.4619C108.158 21.6338 106.646 22.2197 104.754 22.2197C102.838 22.2197 101.314 21.6367 100.184 20.4707C99.0527 19.2988 98.4873 17.6875 98.4873 15.6367ZM101.168 15.5488C101.168 17.0078 101.505 18.1152 102.179 18.8711C102.853 19.6211 103.708 19.9961 104.745 19.9961C105.782 19.9961 106.632 19.624 107.294 18.8799C107.962 18.1299 108.296 17.0078 108.296 15.5137C108.296 14.0371 107.971 12.9355 107.32 12.209C106.676 11.4824 105.817 11.1191 104.745 11.1191C103.673 11.1191 102.809 11.4883 102.152 12.2266C101.496 12.959 101.168 14.0664 101.168 15.5488ZM116.312 22L111.706 9.11523H114.527L117.788 18.6514L120.943 9.11523H123.703L119.089 22H116.312Z"/>
      <path d="M29.6152 0.0140381C28.8525 0.0140381 28.2285 0.646612 28.2285 1.41976C28.2285 2.1929 28.8525 2.82548 29.6152 2.82548C30.3779 2.82548 31.0019 2.1929 31.0019 1.41976C31.0019 0.646612 30.3779 0.0140381 29.6152 0.0140381ZM29.6152 2.61462C28.9635 2.61462 28.4365 2.08045 28.4365 1.41976C28.4365 0.75907 28.9635 0.224896 29.6152 0.224896C30.267 0.224896 30.7939 0.75907 30.7939 1.41976C30.7939 2.08045 30.267 2.61462 29.6152 2.61462Z"/>
      <path d="M30.0729 1.76419C30.0175 1.67985 29.962 1.60956 29.9065 1.55333C29.8788 1.52522 29.8372 1.50413 29.7817 1.47602C29.9273 1.45493 30.0383 1.40573 30.1076 1.32842C30.1769 1.2511 30.2116 1.15973 30.2116 1.04727C30.2116 0.962932 30.1908 0.885617 30.1492 0.808302C30.1076 0.738016 30.0521 0.688816 29.9759 0.660702C29.9065 0.632587 29.8025 0.61853 29.6639 0.61853H28.9844V2.17888H29.1854V1.48305H29.4212C29.4767 1.48305 29.5113 1.48305 29.5321 1.49008C29.5668 1.49711 29.5945 1.51116 29.6223 1.53225C29.65 1.55333 29.6847 1.58848 29.7263 1.63768C29.7679 1.68688 29.8164 1.75716 29.8719 1.85556L30.0729 2.17888H30.3295L30.0729 1.76419ZM29.6223 1.32139H29.1854V0.801274H29.6708C29.7887 0.801274 29.8719 0.82236 29.9204 0.87156C29.9759 0.92076 29.9967 0.976989 29.9967 1.0543C29.9967 1.1035 29.9828 1.1527 29.9551 1.19488C29.9273 1.23705 29.8857 1.27219 29.8372 1.28625C29.7887 1.30733 29.7193 1.32139 29.6223 1.32139Z"/>
      <path d="M126.615 6.01404C125.853 6.01404 125.229 6.64661 125.229 7.41976C125.229 8.1929 125.853 8.82548 126.615 8.82548C127.378 8.82548 128.002 8.1929 128.002 7.41976C128.002 6.64661 127.378 6.01404 126.615 6.01404ZM126.615 8.61462C125.963 8.61462 125.437 8.08045 125.437 7.41976C125.437 6.75907 125.963 6.2249 126.615 6.2249C127.267 6.2249 127.794 6.75907 127.794 7.41976C127.794 8.08045 127.267 8.61462 126.615 8.61462Z"/>
      <path d="M127.073 7.76419C127.017 7.67985 126.962 7.60956 126.907 7.55333C126.879 7.52522 126.837 7.50413 126.782 7.47602C126.927 7.45493 127.038 7.40573 127.108 7.32842C127.177 7.2511 127.212 7.15973 127.212 7.04727C127.212 6.96293 127.191 6.88562 127.149 6.8083C127.108 6.73802 127.052 6.68882 126.976 6.6607C126.907 6.63259 126.803 6.61853 126.664 6.61853H125.984V8.17888H126.185V7.48305H126.421C126.477 7.48305 126.511 7.48305 126.532 7.49008C126.567 7.49711 126.595 7.51116 126.622 7.53225C126.65 7.55333 126.685 7.58848 126.726 7.63768C126.768 7.68688 126.816 7.75716 126.872 7.85556L127.073 8.17888H127.329L127.073 7.76419ZM126.622 7.32139H126.185V6.80127H126.671C126.789 6.80127 126.872 6.82236 126.92 6.87156C126.976 6.92076 126.997 6.97699 126.997 7.0543C126.997 7.1035 126.983 7.1527 126.955 7.19488C126.927 7.23705 126.886 7.27219 126.837 7.28625C126.789 7.30733 126.719 7.32139 126.622 7.32139Z"/>
      <path d="M30.9937 9.11609C30.0369 0.653659 19.4147 0.75206 14.5404 2.91687L14.5334 0L11.6005 0.878575L10.6159 4.96922C4.88188 8.20237 0.305726 14.0431 0.000649034 19.8277C-0.0686867 26.1675 5.42964 29.0843 10.5605 28.993C14.1382 28.9508 17.8823 27.5943 21.7721 25.2116C22.3476 26.6806 23.0686 27.7981 23.8591 28.7399C24.7188 26.786 25.3845 24.3119 25.8698 21.3599C29.2534 17.2271 31.1047 13.1224 30.9937 9.11609ZM12.2523 8.04774V12.2298H11.1845L12.2523 8.04774ZM10.0405 7.54871L8.95882 12.2438L5.76245 12.2298C6.85102 10.2828 8.28627 8.72952 10.0405 7.54871ZM7.57904 19.2373C7.3849 20.6922 7.22543 21.4724 6.81635 21.4161C6.34487 21.2475 6.12299 20.0385 5.98432 19.2373H7.57904ZM3.59917 17.0022C4.42427 21.1701 5.3187 24.6844 7.47504 24.9023C8.42494 24.832 9.29164 23.4052 9.95033 19.2302H12.2384V21.3037H14.4849V19.2443H16.3292V21.2896H18.6866V19.2443H20.4616L21.1411 23.3771C13.0982 28.3955 0.569202 27.039 3.59917 17.0022ZM23.5887 23.4685C22.9508 23.0187 22.7497 21.2264 22.715 19.2373L24.2751 19.2443C24.2474 21.4653 24.0671 23.0819 23.5887 23.4685ZM26.48 15.4699V12.2649H22.5417V10.3602H20.4478V12.1876H18.645V10.3602H16.3569V12.2087H14.5681V4.89893C23.9145 1.65875 30.1201 6.91614 26.48 15.4699Z"/>
   </symbol>

   <symbol viewBox="0 0 32 32" id="question-icon" fill="currentColor">
      <path d="M14 22H18V26H14V22ZM22 8C23.105 8 24 8.895 24 10V16L18 20H14V18L20 14V12H10V8H22ZM16 3C12.528 3 9.263 4.352 6.808 6.808C4.353 9.264 3 12.528 3 16C3 19.472 4.352 22.737 6.808 25.192C9.264 27.647 12.528 29 16 29C19.472 29 22.737 27.648 25.192 25.192C27.647 22.736 29 19.472 29 16C29 12.528 27.648 9.263 25.192 6.808C22.736 4.353 19.472 3 16 3ZM16 0C24.837 0 32 7.163 32 16C32 24.837 24.837 32 16 32C7.163 32 0 24.837 0 16C0 7.163 7.163 0 16 0Z"/>
   </symbol>

   <symbol viewBox="0 0 16 16" id="address-book-icon" fill="currentColor">
      <path d="M3 0V16H15V0H3ZM9 4.005C10.1015 4.005 10.995 4.898 10.995 6C10.995 7.102 10.102 7.995 9 7.995C7.898 7.995 7.005 7.102 7.005 6C7.005 4.898 7.898 4.005 9 4.005ZM12 12H6V11C6 9.8955 6.8955 9 8 9H10C11.1045 9 12 9.8955 12 11V12Z"/>
      <path d="M1 1H2.5V4H1V1Z"/>
      <path d="M1 5H2.5V8H1V5Z"/>
      <path d="M1 9H2.5V12H1V9Z"/>
      <path d="M1 13H2.5V16H1V13Z"/>
   </symbol>

   <symbol viewBox="0 0 18 18" id="arrow-down-icon" fill="currentColor">
      <path d="M15.4204 10.9204L9.79536 16.5454C9.35604 16.9847 8.64392 16.9847 8.20461 16.5454L2.57961 10.9204C2.14029 10.4811 2.14029 9.76894 2.57961 9.32963C3.01892 8.89031 3.73104 8.89031 4.17036 9.32963L7.87498 13.0343V2.25C7.87498 1.62844 8.37842 1.125 8.99998 1.125C9.62154 1.125 10.125 1.62844 10.125 2.25V13.0343L13.8296 9.32963C14.049 9.11025 14.337 9 14.625 9C14.913 9 15.201 9.10969 15.4204 9.32963C15.8597 9.76894 15.8597 10.4811 15.4204 10.9204Z"/>
   </symbol>

   <symbol viewBox="0 0 32 32" id="arrow-right-icon" fill="currentColor">
      <path d="M19.414 27.414L29.414 17.414C30.195 16.633 30.195 15.367 29.414 14.586L19.414 4.58599C18.633 3.80499 17.367 3.80499 16.586 4.58599C15.805 5.36699 15.805 6.63299 16.586 7.41399L23.172 14H4C2.895 14 2 14.895 2 16C2 17.105 2.895 18 4 18H23.172L16.586 24.586C16.196 24.976 16 25.488 16 26C16 26.512 16.195 27.024 16.586 27.414C17.367 28.195 18.633 28.195 19.414 27.414Z"/>
   </symbol>

   <symbol viewBox="0 0 32 32" id="arrow-up-icon" fill="currentColor">
      <path d="M27.414 12.586L17.414 2.58599C16.633 1.80499 15.367 1.80499 14.586 2.58599L4.58599 12.586C3.80499 13.367 3.80499 14.633 4.58599 15.414C5.36699 16.195 6.63299 16.195 7.41399 15.414L14 8.82799V28C14 29.105 14.895 30 16 30C17.105 30 18 29.105 18 28V8.82799L24.586 15.414C24.976 15.804 25.488 16 26 16C26.512 16 27.024 15.805 27.414 15.414C28.195 14.633 28.195 13.367 27.414 12.586Z"/>
   </symbol>

   <symbol viewBox="0 0 16 16" id="bookmark-icon" fill="currentColor">
      <path d="M3 0V16L8 11L13 16V0H3Z"/>
   </symbol>

   <symbol viewBox="0 0 30 30" id="books-icon" fill="currentColor">
      <path d="M5.83333 3.75H0.833333C0.375 3.75 0 4.17188 0 4.6875V25.3125C0 25.8281 0.375 26.25 0.833333 26.25H5.83333C6.29167 26.25 6.66667 25.8281 6.66667 25.3125V4.6875C6.66667 4.17188 6.29167 3.75 5.83333 3.75ZM5 9.375H1.66667V7.5H5V9.375Z"/>
      <path d="M14.1666 3.75H9.16665C8.70831 3.75 8.33331 4.17188 8.33331 4.6875V25.3125C8.33331 25.8281 8.70831 26.25 9.16665 26.25H14.1666C14.625 26.25 15 25.8281 15 25.3125V4.6875C15 4.17188 14.625 3.75 14.1666 3.75ZM13.3333 9.375H9.99998V7.5H13.3333V9.375Z"/>
      <path d="M19.9242 5.19937L15.4592 7.73062C15.05 7.96219 14.8834 8.52937 15.09 8.98969L22.5892 25.7344C22.795 26.1947 23.2992 26.3822 23.7084 26.1497L28.1734 23.6184C28.5825 23.3869 28.7492 22.8197 28.5425 22.3594L21.0434 5.61469C20.8375 5.15437 20.3334 4.96687 19.9242 5.19937Z"/>
   </symbol>

   <symbol viewBox="0 0 30 30" id="bubble-icon" fill="currentColor">
      <path d="M15 1.875C23.2847 1.875 30 7.33125 30 14.0625C30 20.7937 23.2847 26.25 15 26.25C14.2041 26.25 13.4231 26.1994 12.6609 26.1019C9.43875 29.3241 5.59312 29.9016 1.875 29.9869V29.1984C3.88313 28.215 5.625 26.4225 5.625 24.375C5.625 24.0891 5.6025 23.8088 5.56125 23.5341C2.16844 21.3 0 17.8866 0 14.0625C0 7.33125 6.71531 1.875 15 1.875Z"/>
   </symbol>

   <symbol viewBox="0 0 60 60" id="calendar-icon" fill="currentColor">
      <path d="M18.75 22.5H26.25V30H18.75V22.5ZM30 22.5H37.5V30H30V22.5ZM41.25 22.5H48.75V30H41.25V22.5ZM7.5 45H15V52.5H7.5V45ZM18.75 45H26.25V52.5H18.75V45ZM30 45H37.5V52.5H30V45ZM18.75 33.75H26.25V41.25H18.75V33.75ZM30 33.75H37.5V41.25H30V33.75ZM41.25 33.75H48.75V41.25H41.25V33.75ZM7.5 33.75H15V41.25H7.5V33.75ZM48.75 0V3.75H41.25V0H15V3.75H7.5V0H0V60H56.25V0H48.75ZM52.5 56.25H3.75V15H52.5V56.25Z"/>
   </symbol>

   <symbol viewBox="0 0 18 18" id="checkmark-icon" fill="currentColor">
      <path d="M15.1875 2.25L6.75 10.6875L2.8125 6.75L0 9.5625L6.75 16.3125L18 5.0625L15.1875 2.25Z"/>
   </symbol>

   <symbol viewBox="0 0 30 30" id="clipboard-icon" fill="currentColor">
      <path d="M27.1875 3.75H18.75C18.75 1.67906 17.0709 0 15 0C12.9291 0 11.25 1.67906 11.25 3.75H2.8125C2.295 3.75 1.875 4.17 1.875 4.6875V29.0625C1.875 29.58 2.295 30 2.8125 30H27.1875C27.705 30 28.125 29.58 28.125 29.0625V4.6875C28.125 4.17 27.705 3.75 27.1875 3.75ZM15 1.875C16.0359 1.875 16.875 2.71406 16.875 3.75C16.875 4.78594 16.0359 5.625 15 5.625C13.9641 5.625 13.125 4.78594 13.125 3.75C13.125 2.71406 13.9641 1.875 15 1.875ZM26.25 28.125H3.75V5.625H7.5V8.4375C7.5 8.955 7.92 9.375 8.4375 9.375H21.5625C22.08 9.375 22.5 8.955 22.5 8.4375V5.625H26.25V28.125Z"/>
      <path d="M13.125 25.1513L7.11188 18.2006L8.82563 16.4869L13.125 19.8488L21.1744 12.7369L22.8891 14.4506L13.125 25.1513Z"/>
   </symbol>

   <symbol viewBox="0 0 18 18" id="cross-icon" fill="currentColor">
      <path d="M17.8355 14.4606L12.3748 8.99981L17.8355 3.53906C17.8946 3.48 17.9368 3.41137 17.9643 3.33825C18.0391 3.138 17.9964 2.90456 17.8355 2.74368L15.2559 0.164058C15.095 0.00318285 14.861 -0.0390046 14.6613 0.0352454C14.5882 0.0622454 14.5196 0.104995 14.4605 0.163495L8.99976 5.62425L3.53901 0.163495C3.47995 0.104995 3.41132 0.0622454 3.3382 0.0352454C3.13795 -0.0395671 2.90451 0.00318285 2.74364 0.164058L0.164012 2.74368C0.00313708 2.90456 -0.0390504 3.13856 0.0351996 3.33825C0.0627621 3.41137 0.10495 3.48 0.164012 3.53906L5.62476 8.99981L0.164012 14.4606C0.105512 14.5196 0.0627621 14.5882 0.0351996 14.6614C-0.0396129 14.8611 0.00313708 15.0951 0.164012 15.2559L2.74364 17.8356C2.90451 17.9964 3.13851 18.0386 3.3382 17.9644C3.41132 17.9368 3.47995 17.8946 3.53901 17.8356L8.99976 12.3748L14.4605 17.8356C14.5196 17.8946 14.5882 17.9368 14.6613 17.9644C14.8616 18.0392 15.095 17.9964 15.2559 17.8356L17.8355 15.2559C17.9964 15.0951 18.0391 14.8611 17.9643 14.6614C17.9368 14.5882 17.8946 14.5196 17.8355 14.4606Z"/>
   </symbol>

   <symbol viewBox="0 0 16 16" id="drawer-icon" fill="currentColor">
      <path d="M15.8905 10.1875L11.8905 5.1875C11.7955 5.069 11.652 5 11.5 5H4.5C4.348 5 4.2045 5.069 4.1095 5.1875L0.1095 10.1875C0.0385 10.276 0 10.3865 0 10.5V15C0 15.5525 0.4475 16 1 16H15C15.5525 16 16 15.5525 16 15V10.5C16 10.3865 15.9615 10.2765 15.8905 10.1875ZM15 11H11.5L9.5 13H6.5L4.5 11H1V10.6755L4.7405 6H11.26L15.0005 10.6755L15 11Z"/>
      <path d="M11.5 8H4.5C4.224 8 4 7.776 4 7.5C4 7.224 4.224 7 4.5 7H11.5C11.776 7 12 7.224 12 7.5C12 7.776 11.776 8 11.5 8Z"/>
      <path d="M12.5 10H3.5C3.224 10 3 9.776 3 9.5C3 9.224 3.224 9 3.5 9H12.5C12.776 9 13 9.224 13 9.5C13 9.776 12.776 10 12.5 10Z"/>
   </symbol>

   <symbol viewBox="0 0 16 16" id="enter-icon" fill="currentColor">
      <path d="M6 8H1V6H6V4L9 7L6 10V8ZM16 0V13L10 16V13H4V9H5V12H10V3L14 1H5V5H4V0H16Z" fill="black"/>
   </symbol>

   <symbol viewBox="0 0 28 28" id="equalizer-icon" fill="currentColor">
      <path d="M12.25 3.5V3.0625C12.25 2.34062 11.6594 1.75 10.9375 1.75H6.5625C5.84062 1.75 5.25 2.34062 5.25 3.0625V3.5H0V7H5.25V7.4375C5.25 8.15938 5.84062 8.75 6.5625 8.75H10.9375C11.6594 8.75 12.25 8.15938 12.25 7.4375V7H28V3.5H12.25ZM7 7V3.5H10.5V7H7ZM22.75 11.8125C22.75 11.0906 22.1594 10.5 21.4375 10.5H17.0625C16.3406 10.5 15.75 11.0906 15.75 11.8125V12.25H0V15.75H15.75V16.1875C15.75 16.9094 16.3406 17.5 17.0625 17.5H21.4375C22.1594 17.5 22.75 16.9094 22.75 16.1875V15.75H28V12.25H22.75V11.8125ZM17.5 15.75V12.25H21V15.75H17.5ZM12.25 20.5625C12.25 19.8406 11.6594 19.25 10.9375 19.25H6.5625C5.84062 19.25 5.25 19.8406 5.25 20.5625V21H0V24.5H5.25V24.9375C5.25 25.6594 5.84062 26.25 6.5625 26.25H10.9375C11.6594 26.25 12.25 25.6594 12.25 24.9375V24.5H28V21H12.25V20.5625ZM7 24.5V21H10.5V24.5H7Z"/>
   </symbol>

   <symbol viewBox="0 0 16 16" id="eye-icon" fill="currentColor">
      <path d="M8 3C4.5105 3 1.486 5.032 0 8C1.486 10.968 4.5105 13 8 13C11.4895 13 14.5135 10.968 16 8C14.514 5.032 11.4895 3 8 3ZM11.9445 5.6515C12.8845 6.251 13.681 7.054 14.2795 8C13.681 8.9455 12.8845 9.749 11.9445 10.3485C10.7635 11.102 9.3995 11.5 8 11.5C6.6005 11.5 5.2365 11.102 4.0555 10.3485C3.1155 9.749 2.319 8.946 1.7205 8C2.319 7.0545 3.1155 6.251 4.0555 5.6515C4.1165 5.6125 4.1785 5.5745 4.241 5.5375C4.0855 5.9645 4 6.4255 4 6.906C4 9.115 5.791 10.906 8 10.906C10.209 10.906 12 9.115 12 6.906C12 6.425 11.915 5.9645 11.759 5.5375C11.821 5.5745 11.883 5.6125 11.9445 5.6515ZM8 6.5C8 7.3285 7.3285 8 6.5 8C5.6715 8 5 7.3285 5 6.5C5 5.6715 5.6715 5 6.5 5C7.3285 5 8 5.6715 8 6.5Z"/>
   </symbol>

   <symbol viewBox="0 0 30 30" id="file-excel-icon" fill="currentColor">
      <path d="M21.7688 11.25H17.805L15 15.3816L12.195 11.25H8.23126L12.9825 18.3534L7.62189 26.25H15V23.5669H13.5309L15 21.3694L18.2635 26.2491H22.3781L17.0175 18.3525L21.7688 11.2491V11.25Z"/>
      <path d="M26.8884 6.71156C26.2378 5.82375 25.3303 4.78688 24.3347 3.79031C23.3391 2.79375 22.3013 1.88719 21.4134 1.23656C19.9022 0.128437 19.17 0 18.75 0H4.21875C2.92687 0 1.875 1.05094 1.875 2.34375V27.6562C1.875 28.9481 2.92594 30 4.21875 30H25.7812C27.0731 30 28.125 28.9481 28.125 27.6562V9.375C28.125 8.955 27.9966 8.22188 26.8884 6.71156ZM23.0091 5.11594C23.9081 6.015 24.6141 6.82688 25.1353 7.5H20.625V2.98969C21.2981 3.51094 22.11 4.21687 23.0091 5.11594ZM26.25 27.6562C26.25 27.9103 26.0353 28.125 25.7812 28.125H4.21875C3.96469 28.125 3.75 27.9103 3.75 27.6562V2.34375C3.75 2.08969 3.96469 1.875 4.21875 1.875H18.75V8.4375C18.75 8.955 19.17 9.375 19.6875 9.375H26.25V27.6562Z"/>
   </symbol>

   <symbol viewBox="0 0 30 30" id="file-pdf-icon" fill="currentColor">
      <path d="M24.6685 17.2697C24.2682 16.8759 23.3822 16.6669 22.0322 16.6491C21.1191 16.6388 20.0194 16.7194 18.8635 16.8816C18.346 16.5825 17.8116 16.2581 17.3935 15.8663C16.2666 14.8144 15.3263 13.3538 14.7394 11.7469C14.7778 11.5969 14.8097 11.4647 14.8407 11.3306C14.8407 11.3306 15.4753 7.725 15.3075 6.50625C15.2841 6.33938 15.27 6.29063 15.225 6.16031L15.1697 6.01875C14.9972 5.62031 14.6588 5.19844 14.1282 5.22188L13.8085 5.21156C13.2169 5.21156 12.7341 5.51438 12.6075 5.96625C12.2222 7.38563 12.6197 9.50813 13.3397 12.2578L13.155 12.7059C12.6394 13.9622 11.9944 15.2269 11.4244 16.3434L11.3503 16.4888C10.7513 17.6616 10.2066 18.6572 9.7144 19.5009L9.20534 19.77C9.16784 19.7897 8.29597 20.2509 8.09159 20.3747C6.35534 21.4116 5.20503 22.5881 5.01472 23.5219C4.95378 23.82 4.99878 24.2016 5.30815 24.3778L5.80034 24.6253C6.01409 24.7322 6.23909 24.7866 6.46972 24.7866C7.70628 24.7866 9.14159 23.2463 11.1188 19.7953C13.4016 19.0519 16.0013 18.4341 18.2794 18.0938C20.0157 19.0716 22.1503 19.7503 23.4985 19.7503C23.7375 19.7503 23.9438 19.7278 24.1116 19.6828C24.3703 19.6144 24.5878 19.4672 24.721 19.2666C24.9825 18.8728 25.035 18.3309 24.9647 17.7759C24.9432 17.6109 24.8119 17.4075 24.6694 17.2688L24.6685 17.2697ZM6.20065 23.8491C6.42659 23.2322 7.31815 22.0134 8.63815 20.9325C8.72065 20.865 8.92503 20.6737 9.11253 20.4956C7.73253 22.6969 6.80815 23.5734 6.20065 23.8491ZM14.0166 5.85C14.4141 5.85 14.64 6.85219 14.6588 7.79063C14.6775 8.72906 14.4582 9.38906 14.1853 9.87656C13.9594 9.15469 13.8507 8.01656 13.8507 7.27219C13.8507 7.27219 13.8338 5.85 14.0166 5.85ZM11.685 18.6769C11.9616 18.1809 12.2503 17.6588 12.5447 17.1047C13.2619 15.7481 13.7157 14.6859 14.0532 13.8131C14.7244 15.0347 15.5607 16.0725 16.5432 16.9041C16.666 17.0081 16.7953 17.1122 16.9322 17.2163C14.9335 17.6119 13.2066 18.0928 11.686 18.6769H11.685ZM24.2841 18.5644C24.1622 18.6403 23.8135 18.6844 23.5894 18.6844C22.8657 18.6844 21.9703 18.3534 20.715 17.8153C21.1978 17.7797 21.6394 17.7619 22.036 17.7619C22.7616 17.7619 22.9772 17.7591 23.6869 17.94C24.3966 18.1209 24.406 18.4875 24.2841 18.5644Z"/>
      <path d="M26.8884 6.71156C26.2378 5.82375 25.3303 4.78688 24.3347 3.79031C23.3391 2.79375 22.3013 1.88719 21.4134 1.23656C19.9022 0.128437 19.17 0 18.75 0H4.21875C2.92687 0 1.875 1.05094 1.875 2.34375V27.6562C1.875 28.9481 2.92594 30 4.21875 30H25.7812C27.0731 30 28.125 28.9481 28.125 27.6562V9.375C28.125 8.955 27.9966 8.22188 26.8884 6.71156ZM23.0091 5.11594C23.9081 6.015 24.6141 6.82688 25.1353 7.5H20.625V2.98969C21.2981 3.51094 22.11 4.21687 23.0091 5.11594ZM26.25 27.6562C26.25 27.9103 26.0353 28.125 25.7812 28.125H4.21875C3.96469 28.125 3.75 27.9103 3.75 27.6562V2.34375C3.75 2.08969 3.96469 1.875 4.21875 1.875H18.75V8.4375C18.75 8.955 19.17 9.375 19.6875 9.375H26.25V27.6562Z"/>
   </symbol>

   <symbol viewBox="0 0 22 22" id="file-picture-icon" fill="currentColor">
      <path d="M17.875 19.25H4.125V16.5L8.25 9.625L13.9006 16.5L17.875 13.75V19.25Z"/>
      <path d="M17.875 10.3125C17.875 11.4517 16.9517 12.375 15.8125 12.375C14.6733 12.375 13.75 11.4517 13.75 10.3125C13.75 9.17331 14.6733 8.25 15.8125 8.25C16.9517 8.25 17.875 9.17331 17.875 10.3125Z"/>
      <path d="M19.7182 4.92181C19.2411 4.27075 18.5756 3.51038 17.8454 2.77956C17.1153 2.04875 16.3542 1.38394 15.7032 0.906812C14.5949 0.0941875 14.058 0 13.75 0H3.09375C2.14638 0 1.375 0.770688 1.375 1.71875V20.2812C1.375 21.2286 2.14638 22 3.09375 22H18.9062C19.8536 22 20.625 21.2286 20.625 20.2812V6.875C20.625 6.567 20.5308 6.02938 19.7182 4.92181ZM16.8733 3.75169C17.5326 4.411 18.0503 5.00637 18.4326 5.5H15.125V2.19244C15.6186 2.57469 16.214 3.09237 16.8733 3.75169ZM19.25 20.2812C19.25 20.4676 19.0926 20.625 18.9062 20.625H3.09375C2.90744 20.625 2.75 20.4676 2.75 20.2812V1.71875C2.75 1.53244 2.90744 1.375 3.09375 1.375H13.75V6.1875C13.75 6.567 14.058 6.875 14.4375 6.875H19.25V20.2812Z"/>
   </symbol>

   <symbol viewBox="0 0 32 32" id="file-text-icon" fill="currentColor">
      <path d="M28.681 7.159C27.987 6.212 27.019 5.106 25.957 4.043C24.895 2.98 23.788 2.013 22.841 1.319C21.229 0.137 20.448 0 20 0H4.5C3.122 0 2 1.121 2 2.5V29.5C2 30.878 3.122 32 4.5 32H27.5C28.878 32 30 30.878 30 29.5V10C30 9.552 29.863 8.77 28.681 7.159ZM24.543 5.457C25.502 6.416 26.255 7.282 26.811 8H22V3.189C22.718 3.745 23.584 4.498 24.543 5.457ZM28 29.5C28 29.771 27.771 30 27.5 30H4.5C4.229 30 4 29.771 4 29.5V2.5C4 2.229 4.229 2 4.5 2H20V9C20 9.552 20.448 10 21 10H28V29.5Z"/>
      <path d="M23 26H9C8.448 26 8 25.552 8 25C8 24.448 8.448 24 9 24H23C23.552 24 24 24.448 24 25C24 25.552 23.552 26 23 26Z"/>
      <path d="M23 22H9C8.448 22 8 21.552 8 21C8 20.448 8.448 20 9 20H23C23.552 20 24 20.448 24 21C24 21.552 23.552 22 23 22Z"/>
      <path d="M23 18H9C8.448 18 8 17.552 8 17C8 16.448 8.448 16 9 16H23C23.552 16 24 16.448 24 17C24 17.552 23.552 18 23 18Z"/>
   </symbol>

   <symbol viewBox="0 0 30 30" id="file-word-icon" fill="currentColor">
      <path d="M18.7434 13.9425H20.0391L18.5447 20.5688L16.6013 11.2519H13.4794L11.22 20.5688L9.52595 11.2519H6.26251L9.57564 26.2481H12.7641L14.9991 17.3794L16.9988 26.2481H19.9388L23.7366 11.2519H18.7434V13.9425Z"/>
      <path d="M26.8884 6.71156C26.2378 5.82375 25.3303 4.78688 24.3347 3.79031C23.3391 2.79375 22.3013 1.88719 21.4134 1.23656C19.9022 0.128437 19.17 0 18.75 0H4.21875C2.92687 0 1.875 1.05094 1.875 2.34375V27.6562C1.875 28.9481 2.92594 30 4.21875 30H25.7812C27.0731 30 28.125 28.9481 28.125 27.6562V9.375C28.125 8.955 27.9966 8.22188 26.8884 6.71156ZM23.0091 5.11594C23.9081 6.015 24.6141 6.82688 25.1353 7.5H20.625V2.98969C21.2981 3.51094 22.11 4.21687 23.0091 5.11594ZM26.25 27.6562C26.25 27.9103 26.0353 28.125 25.7812 28.125H4.21875C3.96469 28.125 3.75 27.9103 3.75 27.6562V2.34375C3.75 2.08969 3.96469 1.875 4.21875 1.875H18.75V8.4375C18.75 8.955 19.17 9.375 19.6875 9.375H26.25V27.6562Z"/>
   </symbol>

   <symbol viewBox="0 0 32 32" id="folder-open-icon" fill="currentColor">
      <path d="M26 30L32 14H6L0 30H26ZM4 12L0 30V4H9L13 8H26V12H4Z"/>
   </symbol>

   <symbol viewBox="0 0 30 30" id="library-icon" fill="currentColor">
      <path d="M28.2353 28.125V26.25H26.4706V15H28.2353V13.125H22.9412V15H24.7059V26.25H19.4118V15H21.1765V13.125H15.8824V15H17.6471V26.25H12.3529V15H14.1176V13.125H8.82353V15H10.5882V26.25H5.29412V15H7.05882V13.125H1.76471V15H3.52941V26.25H1.76471V28.125H0V30H30V28.125H28.2353Z"/>
      <path d="M14.1176 0H15.8824L30 9.375V11.25H0V9.375L14.1176 0Z"/>
   </symbol>

   <symbol viewBox="0 0 22 22" id="pencil-icon" fill="currentColor">
      <path d="M18.5625 0C20.4607 0 22 1.53931 22 3.4375C22 4.21163 21.7442 4.92525 21.3125 5.5L19.9375 6.875L15.125 2.0625L16.5 0.6875C17.0748 0.25575 17.7884 0 18.5625 0ZM1.375 15.8125L0 22L6.1875 20.625L18.9062 7.90625L14.0938 3.09375L1.375 15.8125ZM15.3739 7.81138L5.74888 17.4364L4.56362 16.2511L14.1886 6.62612L15.3739 7.81138Z"/>
   </symbol>

   <symbol viewBox="0 0 16 16" id="printer-icon" fill="currentColor">
      <path d="M4 1H12V3H4V1Z"/>
      <path d="M15 4H1C0.45 4 0 4.45 0 5V10C0 10.55 0.45 11 1 11H4V15H12V11H15C15.55 11 16 10.55 16 10V5C16 4.45 15.55 4 15 4ZM2 7C1.4475 7 1 6.5525 1 6C1 5.4475 1.4475 5 2 5C2.5525 5 3 5.4475 3 6C3 6.5525 2.5525 7 2 7ZM11 14H5V9H11V14Z"/>
   </symbol>

   <symbol viewBox="0 0 28 28" id="search-icon" fill="currentColor">
      <path d="M27.1319 23.827L20.4994 18.1859C19.8134 17.569 19.0801 17.2855 18.4878 17.3126C20.0531 15.4786 20.999 13.0995 20.999 10.499C20.999 4.70037 16.2976 -0.00100708 10.499 -0.00100708C4.7004 -0.00100708 -0.000976562 4.70037 -0.000976562 10.499C-0.000976562 16.2976 4.7004 20.999 10.499 20.999C13.0995 20.999 15.4786 20.0531 17.3126 18.4877C17.2855 19.0801 17.569 19.8134 18.1859 20.4994L23.827 27.1319C24.793 28.2046 26.3706 28.2956 27.3331 27.3331C28.2956 26.3706 28.2055 24.793 27.1319 23.827ZM10.4999 17.4999C6.63415 17.4999 3.4999 14.3656 3.4999 10.4999C3.4999 6.63412 6.63415 3.49987 10.4999 3.49987C14.3656 3.49987 17.4999 6.63412 17.4999 10.4999C17.4999 14.3656 14.3656 17.4999 10.4999 17.4999Z"/>
   </symbol>

   <symbol viewBox="0 0 30 30" id="stats-dots-icon" fill="currentColor">
      <path d="M3.75 26.25H30V30H0V0H3.75V26.25ZM8.4375 24.375C6.88406 24.375 5.625 23.1159 5.625 21.5625C5.625 20.0091 6.88406 18.75 8.4375 18.75C8.52 18.75 8.6025 18.7547 8.68313 18.7612L11.7066 13.7222C11.4188 13.2806 11.25 12.7537 11.25 12.1866C11.25 10.6331 12.5091 9.37406 14.0625 9.37406C15.6159 9.37406 16.875 10.6331 16.875 12.1866C16.875 12.7528 16.7072 13.2806 16.4184 13.7222L19.4419 18.7612C19.5225 18.7547 19.605 18.75 19.6875 18.75C19.7503 18.75 19.8122 18.7528 19.8731 18.7566L24.8644 10.0228C24.5559 9.57094 24.375 9.02531 24.375 8.4375C24.375 6.88406 25.6341 5.625 27.1875 5.625C28.7409 5.625 30 6.88406 30 8.4375C30 9.99094 28.7409 11.25 27.1875 11.25C27.1247 11.25 27.0628 11.2472 27.0019 11.2434L22.0106 19.9772C22.3191 20.4281 22.5 20.9747 22.5 21.5625C22.5 23.1159 21.2409 24.375 19.6875 24.375C18.1341 24.375 16.875 23.1159 16.875 21.5625C16.875 20.9963 17.0428 20.4684 17.3316 20.0269L14.3081 14.9878C14.2275 14.9944 14.145 14.9991 14.0625 14.9991C13.98 14.9991 13.8975 14.9944 13.8169 14.9878L10.7934 20.0269C11.0812 20.4684 11.25 20.9953 11.25 21.5616C11.25 23.115 9.99094 24.375 8.4375 24.375Z"/>
   </symbol>

   <symbol viewBox="0 0 16 16" id="user-check-icon" fill="currentColor">
      <path d="M15 9.5L10.5 14L9 12.5L8 13.5L10.5 16L16 10.5L15 9.5Z"/>
      <path d="M7 12H12V10.201C10.9495 9.5885 9.5575 9.168 8 9.0405V8.216C9.1015 7.595 10 6.0475 10 4.5C10 2.0145 10 0 7 0C4 0 4 2.0145 4 4.5C4 6.048 4.8985 7.5955 6 8.216V9.0405C2.608 9.318 0 10.9845 0 12.9995H7V12Z"/>
   </symbol>

   <symbol viewBox="0 0 16 16" id="warning-icon" fill="currentColor">
      <path d="M8.00005 1.4495L14.7046 14.8125H1.29505L7.99955 1.4495H8.00005ZM8.00005 0C7.65505 0 7.31055 0.2325 7.04855 0.6975L0.219053 14.3085C-0.303947 15.2385 0.141053 16 1.20805 16H14.7911C15.8581 16 16.3036 15.239 15.7801 14.3085L8.95055 0.6975C8.68905 0.2325 8.34405 0 7.99905 0L8.00005 0Z"/>
      <path d="M9 13C9 13.5525 8.5525 14 8 14C7.4475 14 7 13.5525 7 13C7 12.4475 7.4475 12 8 12C8.5525 12 9 12.4475 9 13Z"/>
      <path d="M8 11C7.4475 11 7 10.5525 7 10V7C7 6.4475 7.4475 6 8 6C8.5525 6 9 6.4475 9 7V10C9 10.5525 8.5525 11 8 11Z"/>
   </symbol>
</svg>